# xmcd
#
# Track frame offsets:
#	150
#	13422
#	26190
#	37488
#	46418
#	57231
#	67146
#	77140
#	91269
#	109686
#	122873
#	134593
#	147323
#	161918
#
# Disc length: 2347 seconds
#
# Revision: 0
# Processed by: cddbd v1.5.2PL0 Copyright (c) Steve Scherf et al.
# Submitted via: dBpowerAMP V4.0
#
DISCID=da09290e
DTITLE=Johnny Hallyday - Anthologie CD 1
DYEAR=1900
DGENRE=
TTITLE0=Retiens la nuit
TTITLE1=Pas cette chanson
TTITLE2=L'idole des jeunes
TTITLE3=Elle est terrible
TTITLE4=Tes tendres années
TTITLE5=Da dou ron ron
TTITLE6=Pour moi la vie va commencer
TTITLE7=Excuse-moi partenaire
TTITLE8=Le pénitencier
TTITLE9=O Carole
TTITLE10=Quand revient la nuit
TTITLE11=Les coups
TTITLE12=Noir c'est noir
TTITLE13=Hey Joe
EXTD=
EXTT0=
EXTT1=
EXTT2=
EXTT3=
EXTT4=
EXTT5=
EXTT6=
EXTT7=
EXTT8=
EXTT9=
EXTT10=
EXTT11=
EXTT12=
EXTT13=
PLAYORDER=
